<?xml version="1.0" encoding="UTF-8" standalone="no"?>
<svg width="22px" height="22px" viewBox="0 0 22 22" version="1.1" xmlns="http://www.w3.org/2000/svg" xmlns:xlink="http://www.w3.org/1999/xlink">
    <defs>
        <path d="M4.28078431,0.576078431 C4.28078431,0.318039216 4.49058824,0.109019608 4.74823529,0.109019608 C5.0054902,0.109019608 5.21490196,0.318039216 5.21490196,0.576078431 L5.21490196,1.7427451 C5.21490196,1.74901961 5.21333333,1.7545098 5.21333333,1.76 C6.04313725,1.85490196 7.25490196,2.39215686 7.25490196,3.97568627 C7.25490196,4.80392157 6.94235294,5.38352941 6.47372549,5.77137255 C7.12823529,6.09058824 7.71607843,6.71019608 7.71607843,7.82313725 C7.71607843,9.47764706 6.46196078,10.1960784 5.21176471,10.3478431 C5.21254902,10.3588235 5.21490196,10.3690196 5.21490196,10.3803922 L5.21490196,11.5466667 C5.21490196,11.8047059 5.0054902,12.0145098 4.74823529,12.0145098 C4.49058824,12.0145098 4.28078431,11.8047059 4.28078431,11.5466667 L4.28078431,10.3803922 L3.34745098,10.3803922 L3.34745098,11.5466667 C3.34745098,11.8047059 3.13803922,12.0145098 2.88078431,12.0145098 C2.62313725,12.0145098 2.41372549,11.8047059 2.41372549,11.5466667 L2.41372549,10.3803922 L1.71333333,10.3803922 L0.779607843,10.3803922 C0.521960784,10.3803922 0.312941176,10.1709804 0.312941176,9.91294118 C0.312941176,9.65607843 0.521960784,9.44627451 0.779607843,9.44627451 L1.24705882,9.44627451 L1.24705882,5.94470588 L1.24705882,2.67686275 L0.779607843,2.67686275 C0.521960784,2.67686275 0.312941176,2.46784314 0.312941176,2.21019608 C0.312941176,1.95254902 0.521960784,1.7427451 0.779607843,1.7427451 L1.71333333,1.7427451 L2.41372549,1.7427451 L2.41372549,0.576078431 C2.41372549,0.318039216 2.62313725,0.109019608 2.88078431,0.109019608 C3.13803922,0.109019608 3.34745098,0.318039216 3.34745098,0.576078431 L3.34745098,1.7427451 L4.28078431,1.7427451 L4.28078431,0.576078431 Z M2.18039216,2.67686275 L2.18039216,5.47843137 L4.42980392,5.47843137 C5.13607843,5.47843137 6.32078431,5.2827451 6.32078431,3.97568627 C6.32078431,2.73960784 5.17686275,2.67686275 4.94745098,2.67686275 L2.18039216,2.67686275 Z M2.18039216,6.41176471 L2.18039216,9.44627451 L4.68666667,9.44627451 C5.17882353,9.44627451 6.78235294,9.32941176 6.78235294,7.82313725 C6.78235294,6.47215686 5.39764706,6.41411765 5.24039216,6.41176471 L4.42980392,6.41176471 L2.18039216,6.41176471 Z" id="path-1"></path>
    </defs>
    <g id="Side-Menu" stroke="none" stroke-width="1" fill="none" fill-rule="evenodd">
        <g id="Navigation_sidemenu_dropdown" transform="translate(-115.000000, -27.000000)">
            <g id="Group-4" transform="translate(100.000000, 20.000000)">
                <g id="ic_bitcoin" transform="translate(16.000000, 8.000000)">
                    <path d="M19.7007059,9.94784314 C19.7007059,15.3627451 15.3116863,19.7517647 9.89717647,19.7517647 C4.48227451,19.7517647 0.0928627451,15.3627451 0.0928627451,9.94784314 C0.0928627451,4.53333333 4.48227451,0.143921569 9.89717647,0.143921569 C15.3116863,0.143921569 19.7007059,4.53333333 19.7007059,9.94784314" id="Stroke-37" stroke="#FFFFFF" stroke-linecap="round" stroke-linejoin="round"></path>
                    <g id="Group-41" transform="translate(5.882353, 3.886275)">
                        <mask id="mask-2" fill="white">
                            <use xlink:href="#path-1"></use>
                        </mask>
                        <g id="Clip-40"></g>
                        <polygon id="Fill-39" fill="#FFFFFF" mask="url(#mask-2)" points="-3.61647059 15.9435294 11.6454902 15.9435294 11.6454902 -3.82039216 -3.61647059 -3.82039216"></polygon>
                    </g>
                </g>
            </g>
        </g>
    </g>
</svg>