<?xml version="1.0" encoding="UTF-8" standalone="no"?>
<svg width="20px" height="21px" viewBox="0 0 20 21" version="1.1" xmlns="http://www.w3.org/2000/svg" xmlns:xlink="http://www.w3.org/1999/xlink">
    <defs></defs>
    <g id="Side-Menu" stroke="none" stroke-width="1" fill="none" fill-rule="evenodd" stroke-linecap="round" stroke-linejoin="round">
        <g id="Navigation_sidemenu_dropdown" transform="translate(-116.000000, -111.000000)" stroke="#FFFFFF">
            <g id="Group-4" transform="translate(100.000000, 20.000000)">
                <g id="ic_cart" transform="translate(16.000000, 91.000000)">
                    <polyline id="Stroke-23" points="19.8855652 5.22314894 17.9290435 5.22314894 15.9729565 13.9184681 11.082087 13.9184681 10.1029565 13.9184681 4.2333913 13.9184681 2.27730435 5.22314894 0.320347826 5.22314894"></polyline>
                    <path d="M7.68956522,17.7831915 C7.68956522,18.9278723 6.8,19.8546809 5.7,19.8546809 C4.60173913,19.8546809 3.71130435,18.9278723 3.71130435,17.7831915 C3.71130435,16.6397872 4.60173913,15.7121277 5.7,15.7121277 C6.8,15.7121277 7.68956522,16.6397872 7.68956522,17.7831915 Z" id="Stroke-25"></path>
                    <path d="M16.4947826,17.7831915 C16.4947826,18.9278723 15.6030435,19.8546809 14.5069565,19.8546809 C13.4056522,19.8546809 12.5165217,18.9278723 12.5165217,17.7831915 C12.5165217,16.6397872 13.4056522,15.7121277 14.5069565,15.7121277 C15.6030435,15.7121277 16.4947826,16.6397872 16.4947826,17.7831915 Z" id="Stroke-27"></path>
                    <polyline id="Stroke-29" points="10.0326957 0.15293617 10.0066087 7.54485106 13.6466087 4.10187234"></polyline>
                    <path d="M10.0067826,7.54468085 L6.42808696,4.10851064" id="Stroke-31"></path>
                </g>
            </g>
        </g>
    </g>
</svg>