<svg width="83" height="36" viewBox="0 0 83 36" fill="none" xmlns="http://www.w3.org/2000/svg">
<path d="M49.2 18.1666H3V29.5415M49.2 18.1666C49.2 22.189 50.8225 26.0467 53.7106 28.891C56.5986 31.7353 60.5157 33.3332 64.6 33.3332C68.6843 33.3332 72.6014 31.7353 75.4894 28.891C78.3775 26.0467 80 22.189 80 18.1666C80 14.1442 78.3775 10.2865 75.4894 7.44219C72.6014 4.5979 68.6843 3 64.6 3C60.5157 3 56.5986 4.5979 53.7106 7.44219C50.8225 10.2865 49.2 14.1442 49.2 18.1666V18.1666Z" stroke="#66EDA8" stroke-width="5" stroke-linecap="round" stroke-linejoin="round"/>
<path d="M18.3984 18.168V29.5429" stroke="#66EDA8" stroke-width="5" stroke-linecap="round" stroke-linejoin="round"/>
</svg>
