<?xml version="1.0" encoding="UTF-8" standalone="no"?>
<svg width="20px" height="21px" viewBox="0 0 20 21" version="1.1" xmlns="http://www.w3.org/2000/svg" xmlns:xlink="http://www.w3.org/1999/xlink">
    <defs></defs>
    <g id="Side-Menu" stroke="none" stroke-width="1" fill="none" fill-rule="evenodd" stroke-linecap="round" stroke-linejoin="round">
        <g id="Navigation_sidemenu_dropdown" transform="translate(-116.000000, -155.000000)" stroke="#FFFFFF">
            <g id="ic_gift" transform="translate(117.000000, 156.000000)">
                <g id="Group-10">
                    <path d="M10.6536913,0.598183333 C11.2500391,-0.0901708333 12.2999087,-0.0901708333 12.8950826,0.598183333 C13.7504739,1.5857875 13.2331696,2.89757917 12.8950826,3.187725 C10.6094739,5.18826667 9.15851739,4.99707917 9.08103913,4.99707917 C8.93664783,4.21689167 9.75564783,1.71918333 10.6536913,0.598183333 Z" id="Stroke-34"></path>
                    <path d="M5.27114348,0.598183333 C6.10579565,-0.364483333 7.35562174,0.257766667 7.51331739,0.598183333 C8.41214348,1.71918333 9.22996957,4.22480833 9.08088261,5.00539167 C8.04588261,5.16332917 5.9394913,3.9679125 5.26488261,3.19643333 C4.67636087,2.4906625 4.67636087,1.287725 5.27114348,0.598183333 Z" id="Stroke-36"></path>
                    <polygon id="Stroke-38" points="0.288391304 8.79620833 17.897087 8.79620833 17.897087 5.0195625 0.288391304 5.0195625"></polygon>
                    <polygon id="Stroke-40" points="1.90643478 18.7260833 16.2790435 18.7260833 16.2790435 8.79620833 1.90643478 8.79620833"></polygon>
                </g>
            </g>
        </g>
    </g>
</svg>