<?xml version="1.0" encoding="UTF-8" standalone="no"?>
<svg width="20px" height="20px" viewBox="0 0 20 20" version="1.1" xmlns="http://www.w3.org/2000/svg" xmlns:xlink="http://www.w3.org/1999/xlink">
    <defs></defs>
    <g id="Side-Menu" stroke="none" stroke-width="1" fill="none" fill-rule="evenodd" stroke-linecap="round" stroke-linejoin="round">
        <g id="Navigation_sidemenu_dropdown" transform="translate(-116.000000, -353.000000)" stroke="#FFFFFF">
            <g id="Group-4" transform="translate(100.000000, 20.000000)">
                <g id="ic_settings" transform="translate(17.000000, 334.000000)">
                    <path d="M15.7217571,10.9206 L17.9413286,10.5978857 L17.9413286,7.18731429 L15.7384714,6.86717143 C15.6077571,6.43345714 15.4359,6.01817143 15.2276143,5.62431429 L16.5711857,3.82345714 L14.1596143,1.41188571 L12.3626143,2.75288571 C11.9747571,2.54588571 11.5654714,2.37488571 11.1381857,2.24374286 L10.8120429,0.00231428571 L7.4019,0.00231428571 L7.07575714,2.24374286 C6.65661429,2.37231429 6.25418571,2.53988571 5.87275714,2.74174286 L4.03761429,1.37245714 L1.62604286,3.78402857 L2.99232857,5.61402857 C2.79175714,5.99031429 2.62461429,6.38674286 2.49561429,6.80031429 L0.216042857,7.13117143 L0.216042857,10.5417429 L2.47761429,10.8704571 C2.60275714,11.2853143 2.76561429,11.6834571 2.96275714,12.0618857 L1.58661429,13.9060286 L3.99818571,16.3171714 L5.81704286,14.9603143 C6.19675714,15.1656 6.59875714,15.3370286 7.01747143,15.4690286 L7.34575714,17.7271714 L10.7559,17.7271714 L11.0790429,15.5050286 C11.5080429,15.3773143 11.9199,15.2101714 12.3099,15.0061714 L14.1201857,16.3570286 L16.5317571,13.9454571 L15.1993286,12.1600286 C15.4114714,11.7683143 15.5876143,11.3534571 15.7217571,10.9206 Z" id="Stroke-67"></path>
                    <path d="M12.9387429,8.86564286 C12.9387429,10.9819286 11.2231714,12.6975 9.10688571,12.6975 C6.99102857,12.6975 5.27545714,10.9819286 5.27545714,8.86564286 C5.27545714,6.74935714 6.99102857,5.03421429 9.10688571,5.03421429 C11.2231714,5.03421429 12.9387429,6.74935714 12.9387429,8.86564286 Z" id="Stroke-68"></path>
                </g>
            </g>
        </g>
    </g>
</svg>